<svg viewBox="0 0 16 16" fill="none" xmlns="http://www.w3.org/2000/svg">
<path class="icon" d="M10 9C10 10.1046 9.10457 11 8 11C6.89543 11 6 10.1046 6 9C6 7.89543 6.89543 7 8 7C9.10457 7 10 7.89543 10 9Z" />
<path class="icon" fill-rule="evenodd" clip-rule="evenodd" d="M5.5 3C4.58096 3 4.369 4.2358 4 4.9C4 4.95523 3.95523 5 3.9 5H2.1C2.04477 5 2 5.04477 2 5.1V12.9C2 12.9552 2.04477 13 2.1 13H13.9C13.9552 13 14 12.9552 14 12.9V5.1C14 5.04477 13.9552 5 13.9 5H12.1C12.0448 5 12 4.95523 12 4.9C11.631 4.2358 11.419 3 10.5 3H5.5ZM13 6.5C13 6.77614 12.7761 7 12.5 7C12.2239 7 12 6.77614 12 6.5C12 6.22386 12.2239 6 12.5 6C12.7761 6 13 6.22386 13 6.5ZM11 9C11 10.6569 9.65685 12 8 12C6.34315 12 5 10.6569 5 9C5 7.34315 6.34315 6 8 6C9.65685 6 11 7.34315 11 9Z" />
</svg>
