<svg width="16" height="16" viewBox="0 0 16 16" fill="none" xmlns="http://www.w3.org/2000/svg">
<path class="icon" d="M2 11.8919L4.15174 4H5.52205L7.66246 11.8919H6.6319L6.0883 9.79459H3.58549L3.04189 11.8919H2ZM3.78934 8.97297H5.87313L5.23893 6.54054C5.11813 6.07928 5.02376 5.69369 4.95581 5.38378C4.88786 5.07387 4.84633 4.87207 4.83123 4.77838C4.81613 4.87207 4.77461 5.07387 4.70666 5.38378C4.63871 5.69369 4.54433 6.07568 4.42353 6.52973L3.78934 8.97297Z" />
<path class="icon" d="M11.0782 12C10.4213 12 9.90415 11.8414 9.52665 11.5243C9.14916 11.2 8.96041 10.764 8.96041 10.2162C8.96041 9.66126 9.14916 9.22523 9.52665 8.90811C9.90415 8.59099 10.4138 8.43243 11.0555 8.43243H12.9808V7.83784C12.9808 7.47748 12.8637 7.1964 12.6297 6.99459C12.4032 6.79279 12.0785 6.69189 11.6557 6.69189C11.2858 6.69189 10.98 6.76757 10.7384 6.91892C10.4968 7.06306 10.3496 7.26126 10.2967 7.51351H9.27751C9.34545 7.0018 9.59838 6.59459 10.0363 6.29189C10.4742 5.98919 11.0215 5.83784 11.6784 5.83784C12.3956 5.83784 12.9619 6.01441 13.3771 6.36757C13.7924 6.72072 14 7.2 14 7.80541V11.8919H13.0034V10.7568H12.9921C12.9468 11.1387 12.7505 11.4414 12.4032 11.6649C12.0634 11.8883 11.6218 12 11.0782 12ZM11.3273 11.2324C11.8105 11.2324 12.2069 11.1171 12.5164 10.8865C12.826 10.6559 12.9808 10.3604 12.9808 10V9.15676H11.0782C10.7384 9.15676 10.4704 9.24685 10.2741 9.42703C10.0778 9.60721 9.97965 9.85225 9.97965 10.1622C9.97965 10.4937 10.0967 10.7568 10.3307 10.9514C10.5723 11.1387 10.9045 11.2324 11.3273 11.2324Z" />
</svg>
