<svg width="16" height="16" viewBox="0 0 16 16" fill="none" xmlns="http://www.w3.org/2000/svg">
<circle cx="8" cy="8" r="7" stroke="white" stroke-width="2"/>
<path d="M12.0011 8C11.932 8 11.8762 8.05612 11.874 8.12517C11.8209 9.78776 10.6927 11.2902 9.00292 11.743C7.03796 12.2695 5.02093 11.1871 4.35053 9.30331L5.04808 9.70603C5.10786 9.74055 5.18431 9.72007 5.21883 9.66028C5.25335 9.60049 5.23286 9.52404 5.17308 9.48953L4.1988 8.92703C4.13901 8.89251 4.06256 8.91299 4.02804 8.97278L3.46554 9.94706C3.43103 10.0068 3.45151 10.0833 3.5113 10.1178C3.57108 10.1523 3.64753 10.1318 3.68205 10.0721L4.10084 9.3467C4.79977 11.3771 6.96179 12.5487 9.06763 11.9844C10.8692 11.5017 12.0711 9.89815 12.1242 8.12503C12.1263 8.05603 12.0701 8 12.0011 8Z" fill="white"/>
<path d="M3.99893 7.99999C4.06801 7.99999 4.12379 7.94387 4.126 7.87482C4.1791 6.21223 5.30731 4.7098 6.99707 4.25702C8.96204 3.73051 10.9791 4.81291 11.6495 6.69668L10.9519 6.29396C10.8921 6.25944 10.8157 6.27992 10.7812 6.33971C10.7467 6.3995 10.7671 6.47595 10.8269 6.51046L11.8012 7.07296C11.861 7.10748 11.9374 7.087 11.972 7.02721L12.5345 6.05293C12.569 5.99314 12.5485 5.9167 12.4887 5.88218C12.4289 5.84766 12.3525 5.86814 12.3179 5.92793L11.8992 6.65329C11.2002 4.62292 9.03821 3.45128 6.93237 4.01554C5.1308 4.49827 3.92887 6.10184 3.87581 7.87496C3.87374 7.94395 3.92991 7.99999 3.99893 7.99999Z" fill="white"/>
</svg>
